<?xml version="1.0" encoding="utf-8"?>
<!-- Generator: Adobe Illustrator 24.0.1, SVG Export Plug-In . SVG Version: 6.00 Build 0)  -->
<svg version="1.1" id="Layer_1" xmlns="http://www.w3.org/2000/svg" xmlns:xlink="http://www.w3.org/1999/xlink" x="0px" y="0px"
	 viewBox="0 0 159 144" style="enable-background:new 0 0 159 144;" xml:space="preserve">
<style type="text/css">
	.st0{fill-rule:evenodd;clip-rule:evenodd;fill:#17D0BC;}
	.st1{fill:#17D0BC;}
</style>
<path class="st0" d="M22,2l37.5,15h43l28-11l-42,32v7l24,19.5L146,74l11,32l-10,32.5l-31-8.5h-6l-17,14H67l-18-14h-6.5l-29,8.5
	L2.5,106l11-32L49,64.5L71,45v-7L22,2z M51.5,93v-4l8.5-4h3.5l4,11L51.5,93z M107.5,89v4l-16,3l4-11H99L107.5,89z M67,132.5V120
	l4.5-3H88l4.5,3v12.5l-2-2H69L67,132.5z"/>
<path class="st1" d="M95,41l55-41l9,23.5L151.5,48l4,2l-4,5.5h2.5l-4,5.5l4,3l-6.5,5l-31-10L95,41z"/>
<path class="st1" d="M64,41L9,0L0,23.5L7.5,48l-4,2l4,5.5H5L9,61l-4,3l6.5,5l31-10L64,41z"/>
</svg>
